<svg xmlns="http://www.w3.org/2000/svg" width="300" height="80" version="1.1">
<line y1="0.5" x2="299" y2="0.5" stroke="#F1F7FF"/>  
<line y1="10" x2="299" y2="10" stroke="#F1F7FF"/>
<line y1="20" x2="299" y2="20" stroke="#F1F7FF"/>
<line y1="30" x2="299" y2="30" stroke="#F1F7FF"/>
<line y1="40" x2="299" y2="40" stroke="#F1F7FF"/>
<line y1="50" x2="299" y2="50" stroke="#F1F7FF"/>
<line y1="60" x2="299" y2="60" stroke="#F1F7FF"/>
<line y1="70" x2="299" y2="70" stroke="#F1F7FF"/>
<line y1="80" x2="299" y2="80" stroke="#F1F7FF"/>
<path d="M-8 42.5C-4.33333 33.5 5.5 18.2 15.5 29C28 42.5 29.5 53.5 39.5 48C49.5 42.5 43.5 21 55 26C66.5 31 70.5 53.0001 87 50.5C103.5 48 107.5 -18.5 126.5 8.00003C145.5 34.5 142 45.5 151.5 45.5C161 45.5 164 20.5 175.5 35.5C187 50.5 197 64.5 219.5 48C242 31.5 250.5 -23 266.5 12.5C279.3 40.9 287.167 38 289.5 33C292.333 26.8333 299.5 18.7 305.5 35.5" stroke="#2277FF" fill="none"/>
<path d="M-8 43.5C-4.33333 34.5 5.5 19.2 15.5 30M55 27C49.816 24.7461 48.1881 27.8771 47.0476 32.5M126.5 9.00003C118.181 -2.603 112.737 3.62326 107.861 14.5M266.5 13.5C258.56 -4.11792 252.466 0.43058 245.592 11.5" stroke="#ECC438" stroke-width="2" stroke-linecap="round" fill="none"/>
 
</svg>