<svg width="17" height="19" viewBox="0 0 17 19" fill="none" xmlns="http://www.w3.org/2000/svg">
<path d="M12.4582 0C15.3756 0 17 1.68111 17 4.56167V14.3178C17 17.2456 15.3756 18.8889 12.4582 18.8889H4.54278C1.67167 18.8889 0 17.2456 0 14.3178V4.56167C0 1.68111 1.67167 0 4.54278 0H12.4582ZM4.79778 12.9767C4.51444 12.9483 4.24056 13.0806 4.08944 13.3261C3.93833 13.5622 3.93833 13.8739 4.08944 14.1194C4.24056 14.3556 4.51444 14.4972 4.79778 14.4594H12.2022C12.5791 14.4217 12.8633 14.0996 12.8633 13.7228C12.8633 13.3356 12.5791 13.0144 12.2022 12.9767H4.79778ZM12.2022 8.66906H4.79778C4.39072 8.66906 4.06111 9.00056 4.06111 9.40667C4.06111 9.81278 4.39072 10.1433 4.79778 10.1433H12.2022C12.6083 10.1433 12.9389 9.81278 12.9389 9.40667C12.9389 9.00056 12.6083 8.66906 12.2022 8.66906ZM7.62072 4.39167H4.79778V4.40111C4.39072 4.40111 4.06111 4.73167 4.06111 5.13778C4.06111 5.54389 4.39072 5.87444 4.79778 5.87444H7.62072C8.02778 5.87444 8.35833 5.54389 8.35833 5.12739C8.35833 4.72222 8.02778 4.39167 7.62072 4.39167Z" fill="#93AAC0"/>
</svg>
