<svg width="7" height="7" viewBox="0 0 7 7" fill="none" xmlns="http://www.w3.org/2000/svg">
<path d="M6.77375 2.4649L4.67529 2.14554L3.73722 0.154059C3.7116 0.0995338 3.66945 0.0553941 3.61738 0.0285641C3.48679 -0.0389435 3.32811 0.0173129 3.26281 0.154059L2.32474 2.14554L0.226281 2.4649C0.168426 2.47355 0.115531 2.50211 0.0750326 2.54539C0.0260726 2.59809 -0.000906586 2.66898 2.32624e-05 2.7425C0.000953111 2.81601 0.0297159 2.88613 0.0799915 2.93745L1.59826 4.48753L1.23956 6.67634C1.23115 6.72726 1.23653 6.77962 1.25509 6.8275C1.27365 6.87538 1.30466 6.91685 1.34458 6.94722C1.38451 6.97758 1.43176 6.99562 1.48098 6.9993C1.5302 7.00297 1.57942 6.99213 1.62305 6.96801L3.50002 5.93462L5.37698 6.96801C5.42822 6.99657 5.48773 7.00609 5.54476 6.9957C5.68857 6.96974 5.78527 6.82693 5.76047 6.67634L5.40178 4.48753L6.92004 2.93745C6.96137 2.89504 6.98864 2.83965 6.99691 2.77907C7.01922 2.62761 6.91839 2.4874 6.77375 2.4649Z" fill="#EE266E"/>
</svg>
